<svg width="16" height="16" viewBox="0 0 16 16" fill="none" xmlns="http://www.w3.org/2000/svg">
<rect width="16" height="16" fill="white"/>
<path fill-rule="evenodd" clip-rule="evenodd" d="M1.48145 3.40741C1.48145 2.99831 1.81309 2.66667 2.22219 2.66667H7.09626C7.50536 2.66667 7.837 2.99831 7.837 3.40741C7.837 3.81651 7.50536 4.14815 7.09626 4.14815H2.22219C1.81309 4.14815 1.48145 3.81651 1.48145 3.40741ZM1.48145 11.1852C1.48145 10.7761 1.81309 10.4444 2.22219 10.4444H13.7777C14.1868 10.4444 14.5185 10.7761 14.5185 11.1852C14.5185 11.5943 14.1868 11.9259 13.7777 11.9259H2.22219C1.81309 11.9259 1.48145 11.5943 1.48145 11.1852ZM2.22219 13.037C1.81309 13.037 1.48145 13.3687 1.48145 13.7778C1.48145 14.1869 1.81309 14.5185 2.22219 14.5185H11.4814C11.8905 14.5185 12.2222 14.1869 12.2222 13.7778C12.2222 13.3687 11.8905 13.037 11.4814 13.037H2.22219Z" fill="#CCCCCC"/>
<path fill-rule="evenodd" clip-rule="evenodd" d="M2.22072 5.25C1.81162 5.25 1.47998 5.58164 1.47998 5.99074C1.47998 6.39984 1.81162 6.73148 2.22072 6.73148H7.0948C7.5039 6.73148 7.83554 6.39984 7.83554 5.99074C7.83554 5.58164 7.5039 5.25 7.0948 5.25H2.22072ZM2.22072 7.8426C1.81162 7.8426 1.47998 8.17424 1.47998 8.58334C1.47998 8.99244 1.81162 9.32408 2.22072 9.32408H13.7763C14.1854 9.32408 14.517 8.99244 14.517 8.58334C14.517 8.17424 14.1854 7.8426 13.7763 7.8426H2.22072Z" fill="#FF8340"/>
<path fill-rule="evenodd" clip-rule="evenodd" d="M9.59998 1.5C9.04769 1.5 8.59998 1.94771 8.59998 2.5V5.75691C8.59998 6.30919 9.04769 6.75691 9.59998 6.75691H13.39C13.9423 6.75691 14.39 6.30919 14.39 5.75691V2.5C14.39 1.94772 13.9423 1.5 13.39 1.5H9.59998ZM11.8222 4.49033L12.6558 3.10401H12.015L11.5428 3.97862L11.0539 3.10401H10.3919L11.2391 4.51766V5.36494H11.8222V4.49033Z" fill="#FE5900"/>
</svg>
